<svg width="240" height="56" viewBox="0 0 240 56" fill="none" xmlns="http://www.w3.org/2000/svg">
<g clip-path="url(#clip0_2946_152)">
<path d="M28 56C43.5 56 56 43.5 56 28C56 12.5 43.5 0 28 0C12.5 0 0 12.5 0 28C0 43.5 12.5 56 28 56Z" fill="#0098EA"/>
<path d="M37.5996 15.6H18.3996C14.8996 15.6 12.6996 19.4 14.3996 22.5L26.1996 43C26.9996 44.3 28.8996 44.3 29.6996 43L41.4996 22.5C43.2996 19.4 41.0996 15.6 37.5996 15.6ZM26.2996 36.8L23.6996 31.8L17.4996 20.7C17.0996 20 17.5996 19.1 18.4996 19.1H26.2996V36.8ZM38.4996 20.7L32.2996 31.8L29.6996 36.8V19.1H37.4996C38.3996 19.1 38.8996 20 38.4996 20.7Z" fill="white"/>
</g>
<path d="M79.5455 39H72.7273L80.4091 15.7273H89.0455L96.7273 39H89.9091L84.8182 22.1364H84.6364L79.5455 39ZM78.2727 29.8182H91.0909V34.5455H78.2727V29.8182ZM99.0597 45.5455V21.5455H105.287V24.5909H105.423C105.651 24 105.984 23.4583 106.423 22.9659C106.863 22.4659 107.408 22.0682 108.06 21.7727C108.711 21.4697 109.469 21.3182 110.332 21.3182C111.484 21.3182 112.579 21.625 113.616 22.2386C114.662 22.8523 115.51 23.8182 116.162 25.1364C116.821 26.4545 117.151 28.1667 117.151 30.2727C117.151 32.2879 116.836 33.9583 116.207 35.2841C115.586 36.6098 114.753 37.5985 113.707 38.25C112.67 38.9015 111.529 39.2273 110.287 39.2273C109.469 39.2273 108.738 39.0947 108.094 38.8295C107.457 38.5568 106.912 38.1894 106.457 37.7273C106.01 37.2576 105.666 36.7273 105.423 36.1364H105.332V45.5455H99.0597ZM105.196 30.2727C105.196 31.1212 105.306 31.8561 105.526 32.4773C105.753 33.0909 106.071 33.5682 106.48 33.9091C106.897 34.2424 107.393 34.4091 107.969 34.4091C108.545 34.4091 109.033 34.2462 109.435 33.9205C109.844 33.5871 110.154 33.1136 110.366 32.5C110.586 31.8788 110.696 31.1364 110.696 30.2727C110.696 29.4091 110.586 28.6705 110.366 28.0568C110.154 27.4356 109.844 26.9621 109.435 26.6364C109.033 26.303 108.545 26.1364 107.969 26.1364C107.393 26.1364 106.897 26.303 106.48 26.6364C106.071 26.9621 105.753 27.4356 105.526 28.0568C105.306 28.6705 105.196 29.4091 105.196 30.2727ZM119.778 45.5455V21.5455H126.006V24.5909H126.142C126.369 24 126.703 23.4583 127.142 22.9659C127.581 22.4659 128.127 22.0682 128.778 21.7727C129.43 21.4697 130.188 21.3182 131.051 21.3182C132.203 21.3182 133.297 21.625 134.335 22.2386C135.381 22.8523 136.229 23.8182 136.881 25.1364C137.54 26.4545 137.869 28.1667 137.869 30.2727C137.869 32.2879 137.555 33.9583 136.926 35.2841C136.305 36.6098 135.472 37.5985 134.426 38.25C133.388 38.9015 132.248 39.2273 131.006 39.2273C130.188 39.2273 129.456 39.0947 128.812 38.8295C128.176 38.5568 127.631 38.1894 127.176 37.7273C126.729 37.2576 126.384 36.7273 126.142 36.1364H126.051V45.5455H119.778ZM125.915 30.2727C125.915 31.1212 126.025 31.8561 126.244 32.4773C126.472 33.0909 126.79 33.5682 127.199 33.9091C127.616 34.2424 128.112 34.4091 128.688 34.4091C129.263 34.4091 129.752 34.2462 130.153 33.9205C130.563 33.5871 130.873 33.1136 131.085 32.5C131.305 31.8788 131.415 31.1364 131.415 30.2727C131.415 29.4091 131.305 28.6705 131.085 28.0568C130.873 27.4356 130.563 26.9621 130.153 26.6364C129.752 26.303 129.263 26.1364 128.688 26.1364C128.112 26.1364 127.616 26.303 127.199 26.6364C126.79 26.9621 126.472 27.4356 126.244 28.0568C126.025 28.6705 125.915 29.4091 125.915 30.2727ZM140.406 39V15.7273H146.724V25.1364H147.043L154.043 15.7273H161.406L153.543 26.0909L161.588 39H154.043L148.815 30.2727L146.724 33V39H140.406ZM164.466 39V21.5455H170.739V39H164.466ZM167.602 19.7273C166.754 19.7273 166.027 19.447 165.42 18.8864C164.814 18.3258 164.511 17.6515 164.511 16.8636C164.511 16.0758 164.814 15.4015 165.42 14.8409C166.027 14.2803 166.754 14 167.602 14C168.458 14 169.186 14.2803 169.784 14.8409C170.39 15.4015 170.693 16.0758 170.693 16.8636C170.693 17.6515 170.39 18.3258 169.784 18.8864C169.186 19.447 168.458 19.7273 167.602 19.7273ZM184.344 21.5455V26.0909H172.844V21.5455H184.344ZM175.071 17.3636H181.344V33.3864C181.344 33.6288 181.385 33.8333 181.469 34C181.552 34.1591 181.681 34.2803 181.855 34.3636C182.029 34.4394 182.253 34.4773 182.526 34.4773C182.715 34.4773 182.935 34.4545 183.185 34.4091C183.442 34.3636 183.632 34.3258 183.753 34.2955L184.662 38.7045C184.382 38.7879 183.98 38.8902 183.457 39.0114C182.942 39.1326 182.329 39.2121 181.616 39.25C180.177 39.3258 178.969 39.178 177.991 38.8068C177.014 38.428 176.279 37.8333 175.787 37.0227C175.295 36.2121 175.056 35.197 175.071 33.9773V17.3636Z" fill="white"/>
<defs>
<clipPath id="clip0_2946_152">
<rect width="56" height="56" fill="white"/>
</clipPath>
</defs>
</svg>
